<svg width="21" height="22" xmlns="http://www.w3.org/2000/svg" xmlns:xlink="http://www.w3.org/1999/xlink" overflow="hidden"><defs><clipPath id="clip0"><rect x="357" y="141" width="21" height="22"/></clipPath></defs><g clip-path="url(#clip0)" transform="translate(-357 -141)"><path d="M6.34375 5.6875C6.71563 5.6875 7 5.40313 7 5.03125L7 3.71875C7 3.34687 6.71563 3.0625 6.34375 3.0625 5.97187 3.0625 5.6875 3.34687 5.6875 3.71875L5.6875 5.03125C5.6875 5.40313 5.97187 5.6875 6.34375 5.6875Z" fill="#C11E40" transform="matrix(1 0 0 1.04762 357 141)"/><path d="M4.375 9.625 16.625 9.625 16.625 16.625 4.375 16.625 4.375 9.625ZM3.0625 17.9375 17.9375 17.9375 17.9375 8.3125 3.0625 8.3125 3.0625 17.9375Z" fill="#C11E40" transform="matrix(1 0 0 1.04762 357 141)"/><path d="M14.6562 5.6875C15.0281 5.6875 15.3125 5.40313 15.3125 5.03125L15.3125 3.71875C15.3125 3.34687 15.0281 3.0625 14.6562 3.0625 14.2844 3.0625 14 3.34687 14 3.71875L14 5.03125C14 5.40313 14.2844 5.6875 14.6562 5.6875Z" fill="#C11E40" transform="matrix(1 0 0 1.04762 357 141)"/><path d="M16.1875 4.375 16.1875 5.03125C16.1875 5.88438 15.5094 6.5625 14.6562 6.5625 13.8031 6.5625 13.125 5.88438 13.125 5.03125L13.125 4.375 7.875 4.375 7.875 5.03125C7.875 5.88438 7.19688 6.5625 6.34375 6.5625 5.49062 6.5625 4.8125 5.88438 4.8125 5.03125L4.8125 4.375 3.0625 4.375 3.0625 7.4375 17.9375 7.4375 17.9375 4.375 16.1875 4.375Z" fill="#C11E40" transform="matrix(1 0 0 1.04762 357 141)"/></g></svg>