<svg width="30" height="29" xmlns="http://www.w3.org/2000/svg" xmlns:xlink="http://www.w3.org/1999/xlink" overflow="hidden"><defs><clipPath id="clip0"><rect x="173" y="580" width="30" height="29"/></clipPath></defs><g clip-path="url(#clip0)" transform="translate(-173 -580)"><path d="M16.6523 17.6202 16.5889 17.6202C15.9799 19.4388 14.7875 20.3478 13.0116 20.3474 11.9478 20.3802 10.9312 19.9074 10.2708 19.0726 9.57746 18.2228 9.23076 17.079 9.23076 15.6413 9.23076 13.7384 9.70654 12.1574 10.6581 10.8986 11.5202 9.68322 12.9293 8.97502 14.419 9.00843 14.9858 9.00081 15.5405 9.1717 16.0047 9.4969 16.4314 9.77215 16.7496 10.1868 16.9052 10.6702L16.9433 10.6702C16.9686 10.4336 17.0321 9.9473 17.1336 9.21143L19.2394 9.21143C18.8422 13.6758 18.6437 15.9502 18.6437 16.0346 18.6437 17.7089 19.0793 18.5462 19.9505 18.5464 20.745 18.5464 21.4045 18.0791 21.9291 17.1444 22.4538 16.2098 22.7155 14.9984 22.7146 13.5104 22.7146 11.3116 22.0063 9.51662 20.5897 8.12544 19.1731 6.73425 17.2096 6.03865 14.6991 6.03865 12.4326 5.97787 10.2502 6.89804 8.71148 8.56316 7.12998 10.2454 6.33922 12.3511 6.33922 14.8803 6.33922 17.3753 7.10026 19.388 8.62236 20.9184 10.1445 22.4487 12.1953 23.214 14.7749 23.2142 16.5688 23.2623 18.3505 22.9064 19.9883 22.1729L19.9883 24.1265C18.5083 24.752 16.6605 25.065 14.445 25.0654 11.3327 25.0654 8.82546 24.135 6.92315 22.2744 5.02084 20.4138 4.06927 17.9787 4.06846 14.9691 4.06846 11.874 5.07479 9.30728 7.08748 7.26903 9.10017 5.23078 11.6711 4.21174 14.8003 4.21195 17.7347 4.21195 20.1639 5.06615 22.0877 6.77452 24.0116 8.48289 24.9735 10.7113 24.9735 13.4596 24.9735 15.4725 24.4513 17.1239 23.4069 18.4138 22.3625 19.7037 21.0877 20.3481 19.5826 20.3471 17.6371 20.3473 16.6604 19.4384 16.6523 17.6202ZM14.6353 10.8082C13.7049 10.8082 12.9545 11.2649 12.3839 12.1782 11.7812 13.2121 11.4842 14.3958 11.5275 15.5917 11.4854 16.3557 11.6876 17.1132 12.1048 17.7546 12.4505 18.2632 13.0306 18.5618 13.6454 18.5476 14.5754 18.5476 15.3112 18.0676 15.8527 17.1076 16.3943 16.1476 16.665 14.8766 16.665 13.2947 16.665 11.6372 15.9885 10.8085 14.6353 10.8082Z" fill="#C11E40" transform="matrix(1.03448 0 0 1 173 580)"/></g></svg>