<svg width="30" height="30" xmlns="http://www.w3.org/2000/svg" xmlns:xlink="http://www.w3.org/1999/xlink" overflow="hidden"><defs><clipPath id="clip0"><rect x="173" y="523" width="30" height="30"/></clipPath></defs><g clip-path="url(#clip0)" transform="translate(-173 -523)"><path d="M191.75 531.438C191.75 534.199 189.511 536.438 186.75 536.438 183.989 536.438 181.75 534.199 181.75 531.438 181.75 528.676 183.989 526.438 186.75 526.438 189.511 526.438 191.75 528.676 191.75 531.438Z" fill="#C11E40"/><path d="M188.625 545.188C188.63 542.285 190.731 539.812 193.594 539.336 192.719 538.917 191.809 538.575 190.875 538.312 189.538 537.903 188.148 537.693 186.75 537.688 185.353 537.712 183.966 537.922 182.625 538.312 180.877 538.823 179.229 539.626 177.75 540.688 177.133 541.17 176.766 541.905 176.75 542.688L176.75 547.688 189.184 547.688C188.817 546.905 188.626 546.052 188.625 545.188Z" fill="#C11E40"/><path d="M194.562 540.5C191.974 540.5 189.875 542.599 189.875 545.188 189.875 547.776 191.974 549.875 194.562 549.875 197.151 549.875 199.25 547.776 199.25 545.188 199.25 542.599 197.151 540.5 194.562 540.5ZM196.75 545.5 195.031 545.5 195.031 547.219 194.094 547.219 194.094 545.5 192.375 545.5 192.375 544.562 194.094 544.562 194.094 542.844 195.031 542.844 195.031 544.562 196.75 544.562Z" fill="#C11E40"/></g></svg>