<svg width="30" height="30" xmlns="http://www.w3.org/2000/svg" xmlns:xlink="http://www.w3.org/1999/xlink" overflow="hidden"><defs><clipPath id="clip0"><rect x="173" y="468" width="30" height="30"/></clipPath></defs><g clip-path="url(#clip0)" transform="translate(-173 -468)"><path d="M184.562 480.525C184.731 480.35 184.825 480.117 184.825 479.875 184.826 479.629 184.728 479.392 184.553 479.219L181.591 476.253C181.416 476.078 181.179 475.979 180.931 475.978 180.685 475.98 180.449 476.079 180.275 476.253L179.947 476.584 184.222 480.85Z" fill="#C11E40"/><path d="M188.859 488.112C188.68 488.295 188.387 488.297 188.205 488.118 188.204 488.116 188.202 488.114 188.2 488.112L182.887 482.8C182.705 482.617 182.705 482.32 182.887 482.138L183.55 481.494 179.291 477.237C179.016 477.513 178.747 477.781 178.572 477.947 178.143 478.347 177.887 478.899 177.856 479.484 177.818 480.44 177.988 481.392 178.356 482.275 178.709 483.066 179.141 483.819 179.647 484.522 181.405 487.16 183.629 489.456 186.209 491.297 186.64 491.616 187.093 491.903 187.566 492.156 188.633 492.717 189.802 493.057 191.003 493.156 191.825 493.216 192.629 492.9 193.191 492.297L193.778 491.709 189.503 487.45Z" fill="#C11E40"/><path d="M194.759 489.409 191.797 486.438C191.432 486.076 190.843 486.076 190.478 486.438L190.166 486.775 194.428 491.056 194.759 490.744C195.121 490.378 195.121 489.79 194.759 489.425Z" fill="#C11E40"/><path d="M192.419 483.625 191.169 483.625C191.033 481.832 189.751 480.335 188 479.925L188 478.65C190.446 479.088 192.273 481.145 192.419 483.625Z" fill="#C11E40"/><path d="M195.406 483C195.406 483.209 195.406 483.419 195.378 483.625L194.128 483.625C194.15 483.417 194.16 483.209 194.159 483 194.154 479.601 191.399 476.847 188 476.844L188 475.594C192.089 475.597 195.403 478.911 195.406 483Z" fill="#C11E40"/><path d="M198.625 483C198.625 483.209 198.625 483.419 198.603 483.625L197.353 483.625C197.353 483.419 197.378 483.209 197.378 483 197.378 477.995 193.321 473.938 188.316 473.938 188.315 473.938 188.314 473.938 188.312 473.938 188.206 473.938 188.103 473.938 188 473.938L188 472.688 188.312 472.688C194.008 472.688 198.625 477.305 198.625 483Z" fill="#C11E40"/></g></svg>